<?xml version="1.0" encoding="UTF-8"?>
<svg version="1.1" viewBox="0 0 600 600" xmlns="http://www.w3.org/2000/svg">
<defs>
  <style type="text/css">
   @import url('https://fonts.googleapis.com/css?family=Rubik:400,100,100italic,300,300italic,400italic,500,500italic,700,700italic,900,900italic');
   text {
      font-family: 'Rubik';
   }
 </style>
</defs>
 <g fill-rule="evenodd">
  <g id="Assets" transform="matrix(3.5294 0 0 3.5294 0 -.00014746)" fill="none">
   <g id="Artboard" transform="translate(-84,-1823)">
    <g id="Group" transform="translate(84 1822.4)">
     <rect id="Rectangle" y=".62754" width="170" height="170" fill="#283a6d"/>
     <g id="Headphone-Guy" transform="translate(35.5,50.5)">
      <g id="Logo-final">
       <g fill="#ff69b3">
        <path id="Combined-Shape" d="m6.4215 21.815c-2.2142 4.146-3.5302 9.4401-3.5302 15.185s1.316 11.039 3.5302 15.185c-3.731-2.1179-6.4215-8.1159-6.4215-15.185 0-6.943 2.5957-12.853 6.224-15.067z"/>
        <path d="m18.641 14c-8.1462 0-14.75 10.297-14.75 23s6.6038 23 14.75 23c0.63149 0 1.2537-0.06188 1.8639-0.18275-5.9836-5.816-9.6139-13.453-9.6139-21.817 0-9.114 4.3105-17.365 11.279-23.337-1.1309-0.43299-2.313-0.66263-3.5295-0.66263z" fill-rule="nonzero"/>
        <path transform="matrix(-1 0 0 1 191.18 0)" d="m98.799 21.815c-2.2142 4.146-3.5302 9.4401-3.5302 15.185s1.316 11.039 3.5302 15.185c-3.731-2.1179-6.4215-8.1159-6.4215-15.185 0-6.943 2.5957-12.853 6.224-15.067z"/>
        <path transform="matrix(-1 0 0 1 171.54 0)" d="m91.379 14c-8.1462 0-14.75 10.297-14.75 23s6.6038 23 14.75 23c0.63149 0 1.2537-0.06188 1.8639-0.18275-5.9836-5.816-9.6139-13.453-9.6139-21.817 0-9.114 4.3105-17.365 11.279-23.337-1.1309-0.43299-2.313-0.66263-3.5295-0.66263z" fill-rule="nonzero"/>
        <path d="m49.391 0.5c22.813 0 41.467 15.503 42.382 35l-2.0025 2.66e-4c-0.92008-18.324-18.617-33-40.379-33s-39.459 14.676-40.379 33l-2.0025-2.66e-4c0.91425-19.497 19.569-35 42.382-35z" fill-rule="nonzero"/>
        <ellipse id="Oval" cx="49.391" cy="38" rx="37.506" ry="32.148"/>
       </g>
       <ellipse cx="49.391" cy="36" rx="29.75" ry="23.75" fill="#fff"/>
       <rect transform="rotate(15 31.342 37.559)" x="22.918" y="36.794" width="16.848" height="1.5316" rx=".7658" fill="#283a6d"/>
       <rect transform="matrix(-.96593 .25882 .25882 .96593 122.67 -16.15)" x="58.918" y="36.794" width="16.848" height="1.5316" rx=".7658" fill="#283a6d"/>
      </g>
     </g>
     <g transform="translate(126.4 53.053)" fill="#fff">
      <path d="m2.2985 2.4548c0 2.1367 3.7829 3.8689 8.4493 3.8689 4.6664 0 8.4493-1.7322 8.4493-3.8689 0-0.93028-0.71705-1.7839-1.9119-2.4512 2.5605 0.89843 4.2104 2.3135 4.2104 3.905 0 2.718-4.8119 4.9214-10.748 4.9214-5.9358 0-10.748-2.2034-10.748-4.9214 0-1.5922 1.6512-3.0077 4.2122-3.9072-1.1959 0.6686-1.9137 1.5226-1.9137 2.4534z"/>
      <ellipse cx="10.748" cy="2.4548" rx="3.8689" ry="1.7715"/>
     </g>
    </g>
   </g>
  </g>
  <text fill="#ffffff" font-size="35.294px" font-weight="bold" letter-spacing="5.8824" stroke-width="3.5294" text-align="center" text-anchor="middle"><tspan id="contributor" x="299.95694" y="90.654732">Line Up</tspan></text>
  <text fill="#ffffff" font-size="25px" text-align="center" text-anchor="middle"><tspan id="type" x="299.95694" y="140">Live DJ Set</tspan></text>
  <text fill="#ffffff" font-size="28.235px" font-weight="bold" stroke-width="3.5294" text-align="center" text-anchor="middle"><tspan  id="settitle" x="299.62088" y="530.06653">Listen</tspan></text>
 </g>
</svg>
