<?xml version="1.0" encoding="UTF-8"?>
<svg version="1.1" viewBox="0 0 600 600" xmlns="http://www.w3.org/2000/svg">
<defs>
  <style type="text/css">
   @import url('https://fonts.googleapis.com/css?family=Rubik:400,100,100italic,300,300italic,400italic,500,500italic,700,700italic,900,900italic');
   text {
      font-family: 'Rubik';
   }
 </style>
</defs>
 <g fill-rule="evenodd">
 <g id="Assets" transform="matrix(3.5294 0 0 3.5294 0 -.00014746)" fill="none" fill-rule="evenodd">
  <g id="Artboard" transform="translate(-424,-1654)">
   <g id="Group" transform="translate(424 1653.4)">
    <rect id="Rectangle" y=".62754" width="170" height="170" fill="#29878d"/>
    <path id="Shape" d="m127.97 49c-3.5875 0-6.4959 2.9083-6.4959 6.4959 0 3.5879 2.9084 6.4961 6.4959 6.4961 3.5877 0 6.496-2.9082 6.496-6.4961 0-3.5873-2.9081-6.4956-6.496-6.4956zm2.979 9.3689c-0.11666 0.19137-0.36598 0.25133-0.55672 0.13474-1.5254-0.93231-3.4454-1.1429-5.7066-0.62638-0.21789 0.04996-0.43508-0.08664-0.48472-0.30446-0.0499-0.21789 0.0861-0.43509 0.30453-0.48473 2.4745-0.56572 4.597-0.32223 6.3092 0.72404 0.19083 0.11714 0.25133 0.36614 0.1342 0.55695zm0.79509-1.7685c-0.14692 0.23837-0.45859 0.31315-0.69666 0.16677-1.7457-1.0731-4.4077-1.3839-6.473-0.757-0.26785 0.0809-0.55074-0.07005-0.63204-0.33743-0.0807-0.26785 0.0704-0.55021 0.33774-0.63166 2.3591-0.71581 5.2919-0.36908 7.2971 0.86312 0.23815 0.14661 0.31339 0.45844 0.16678 0.69626zm0.0683-1.8418c-2.0939-1.2435-5.5478-1.3579-7.5467-0.75119-0.32098 0.09735-0.66043-0.08386-0.7577-0.40484-0.0973-0.32114 0.0838-0.66035 0.40499-0.75794 2.2946-0.69658 6.1091-0.56199 8.5195 0.86894 0.28872 0.17135 0.38343 0.54423 0.21231 0.83256-0.17065 0.28872-0.54454 0.38389-0.83232 0.21247z" fill="#fff" fill-rule="nonzero"/>
    <g id="Headphone-Guy" transform="translate(35.5,50.5)">
     <g id="Logo-final" fill="#fff">
      <path id="Combined-Shape" d="m6.4215 21.815c-2.2142 4.146-3.5302 9.4401-3.5302 15.185s1.316 11.039 3.5302 15.185c-3.731-2.1179-6.4215-8.1159-6.4215-15.185 0-6.943 2.5957-12.853 6.224-15.067z"/>
      <path d="m18.641 14c-8.1462 0-14.75 10.297-14.75 23s6.6038 23 14.75 23c0.63149 0 1.2537-0.06188 1.8639-0.18275-5.9836-5.816-9.6139-13.453-9.6139-21.817 0-9.114 4.3105-17.365 11.279-23.337-1.1309-0.43299-2.313-0.66263-3.5295-0.66263z" fill-rule="nonzero"/>
      <path transform="matrix(-1 0 0 1 191.18 0)" d="m98.799 21.815c-2.2142 4.146-3.5302 9.4401-3.5302 15.185s1.316 11.039 3.5302 15.185c-3.731-2.1179-6.4215-8.1159-6.4215-15.185 0-6.943 2.5957-12.853 6.224-15.067z"/>
      <path transform="matrix(-1 0 0 1 171.54 0)" d="m91.379 14c-8.1462 0-14.75 10.297-14.75 23s6.6038 23 14.75 23c0.63149 0 1.2537-0.06188 1.8639-0.18275-5.9836-5.816-9.6139-13.453-9.6139-21.817 0-9.114 4.3105-17.365 11.279-23.337-1.1309-0.43299-2.313-0.66263-3.5295-0.66263z" fill-rule="nonzero"/>
      <path d="m49.391 0.5c22.813 0 41.467 15.503 42.382 35l-2.0025 2.66e-4c-0.92008-18.324-18.617-33-40.379-33s-39.459 14.676-40.379 33l-2.0025-2.66e-4c0.91425-19.497 19.569-35 42.382-35z" fill-rule="nonzero"/>
      <path d="m49.391 5.8524c20.714 0 37.506 14.393 37.506 32.148s-16.792 32.148-37.506 32.148c-20.714 0-37.506-14.393-37.506-32.148s16.792-32.148 37.506-32.148zm0 6.3976c-16.43 0-29.75 10.633-29.75 23.75s13.32 23.75 29.75 23.75c16.43 0 29.75-10.633 29.75-23.75s-13.32-23.75-29.75-23.75z"/>
      <rect transform="rotate(15 31.342 37.559)" x="22.918" y="36.794" width="16.848" height="1.5316" rx=".7658"/>
      <rect transform="matrix(-.96593 .25882 .25882 .96593 122.67 -16.15)" x="58.918" y="36.794" width="16.848" height="1.5316" rx=".7658"/>
     </g>
    </g>
   </g>
  </g> 
 </g>
  <text fill="#ffffff" font-size="35.294px" font-weight="bold" letter-spacing="5.8824" stroke-width="3.5294" text-align="center" text-anchor="middle"><tspan id="contributor" x="299.95694" y="90.654732">Line Up</tspan></text>
  <text fill="#ffffff" font-size="25px" text-align="center" text-anchor="middle"><tspan id="type" x="299.95694" y="140">Playlist</tspan></text>
  <text fill="#ffffff" font-size="28.235px" font-weight="bold" stroke-width="3.5294" text-align="center" text-anchor="middle"><tspan id="settitle" x="299.62088" y="530.06653">Listen</tspan></text>
</g>
</svg>
