<svg xmlns="http://www.w3.org/2000/svg" width="329" height="60" preserveAspectRatio="none">
  <g fill-rule="evenodd">
    <path d="M18.846.88h291.452c10.01 0 18.126 8.487 18.126 18.957 0 .138 0 .276-.004.414l-.3 14.315-1.155 6.382v3.156L317.76 56.7c-1.524 2.085-3.89 3.309-6.4 3.309l-292.724.014c-2.401 0-4.677-1.12-6.208-3.055L2.255 44.104l-.68-3.14v-6.382L.756 21.034C.124 10.584 7.711 1.578 17.701.917c.381-.025.763-.038 1.145-.038z" fill="#29878d"/>
    <path d="M12.103-.175l305.12-.028c6.674-.002 12.084 5.656 12.085 12.636l-.001.001v24.224c-.007 6.977-5.413 12.634-12.084 12.645l-305.12.18C5.429 49.496.016 43.84.013 36.86c0-.003 0-.005.006-.008V12.465C.02 5.485 5.429-.173 12.103-.175z" fill="#349fa6"/>
  </g>
</svg>
