<?xml version="1.0" standalone="no"?>
<!DOCTYPE svg PUBLIC "-//W3C//DTD SVG 20010904//EN"
 "http://www.w3.org/TR/2001/REC-SVG-20010904/DTD/svg10.dtd">
<svg version="1.0" xmlns="http://www.w3.org/2000/svg"
 width="700.000000pt" height="700.000000pt" viewBox="0 0 700.000000 700.000000"
 preserveAspectRatio="xMidYMid meet">
<metadata>
Created by potrace 1.11, written by Peter Selinger 2001-2013
</metadata>
<g transform="translate(0.000000,700.000000) scale(0.100000,-0.100000)"
fill="#000000" stroke="none">
<path d="M0 3500 l0 -3500 3500 0 3500 0 0 3500 0 3500 -3500 0 -3500 0 0
-3500z m3802 930 c466 -99 816 -401 902 -778 21 -92 21 -253 0 -345 -73 -321
-343 -594 -717 -726 -171 -60 -270 -75 -492 -75 -169 0 -216 3 -302 22 -277
60 -485 170 -663 351 -112 115 -175 215 -221 351 -27 80 -33 114 -36 215 -10
249 69 444 257 636 177 180 395 295 661 348 146 29 154 30 344 26 122 -3 197
-10 267 -25z"/>
<path d="M2423 3514 c-9 -25 10 -47 48 -57 19 -4 159 -42 312 -83 219 -59 282
-72 293 -63 19 16 18 36 -4 48 -16 9 -619 171 -635 171 -4 0 -10 -7 -14 -16z"/>
<path d="M4221 3446 c-313 -84 -344 -97 -310 -131 13 -14 47 -7 328 69 173 47
319 90 325 96 13 13 -4 44 -25 46 -8 1 -151 -35 -318 -80z"/>
</g>
</svg>
