<?xml version="1.0" encoding="UTF-8"?>
<svg width="170px" height="170px" viewBox="0 0 170 170" version="1.1" xmlns="http://www.w3.org/2000/svg" xmlns:xlink="http://www.w3.org/1999/xlink">
    <title>Group</title>
    <g id="Assets" stroke="none" stroke-width="1" fill="none" fill-rule="evenodd">
        <g id="Artboard" transform="translate(-894.000000, -79.000000)">
            <g id="Group" transform="translate(894.000000, 79.000000)">
                <rect id="Rectangle" fill="#283A6D" x="0" y="0" width="170" height="170"></rect>
                <g id="Logo-final" transform="translate(35.500000, 49.500000)">
                    <path d="M6.42152059,21.8154861 C4.20731727,25.9614596 2.89130435,31.2555506 2.89130435,37 C2.89130435,42.7444494 4.20731727,48.0385404 6.42152059,52.1845139 C2.69047795,50.0666159 1.19015908e-13,44.0686072 1.19015908e-13,37 C1.19015908e-13,30.0569917 2.59571557,24.146874 6.2240045,21.932778 Z" id="Combined-Shape" fill="#FF69B3"></path>
                    <path d="M18.6413043,14 C10.4951043,14 3.89130435,24.2974508 3.89130435,37 C3.89130435,49.7025492 10.4951043,60 18.6413043,60 C19.2727954,60 19.8950177,59.9381195 20.5051871,59.8172502 C14.5215597,54.0012452 10.8913043,46.3640047 10.8913043,38 C10.8913043,28.8860029 15.201792,20.6349501 22.1707606,14.6626311 C21.0399084,14.2296381 19.8578045,14 18.6413043,14 Z" id="Combined-Shape" fill="#FF69B3" fill-rule="nonzero"></path>
                    <path d="M98.7985948,21.8154861 C96.5843915,25.9614596 95.2683785,31.2555506 95.2683785,37 C95.2683785,42.7444494 96.5843915,48.0385404 98.7985948,52.1845139 C95.0675521,50.0666159 92.3770742,44.0686072 92.3770742,37 C92.3770742,30.0569917 94.9727898,24.146874 98.6010787,21.932778 Z" id="Combined-Shape" fill="#FF69B3" transform="translate(95.588537, 37.000102) scale(-1, 1) translate(-95.588537, -37.000102) "></path>
                    <path d="M91.3792394,14 C83.2330394,14 76.6292394,24.2974508 76.6292394,37 C76.6292394,49.7025492 83.2330394,60 91.3792394,60 C92.0107305,60 92.6329528,59.9381195 93.2431222,59.8172502 C87.2594948,54.0012452 83.6292394,46.3640047 83.6292394,38 C83.6292394,28.8860029 87.9397271,20.6349501 94.9086957,14.6626311 C93.7778435,14.2296381 92.5957396,14 91.3792394,14 Z" id="Combined-Shape" fill="#FF69B3" fill-rule="nonzero" transform="translate(85.768968, 37.000000) scale(-1, 1) translate(-85.768968, -37.000000) "></path>
                    <path d="M49.3913043,0.5 C72.2039669,0.5 90.8586086,16.0031314 91.7728628,35.4998216 L89.7703848,35.5000881 C88.850308,17.1758529 71.1534205,2.5 49.3913043,2.5 C27.6291882,2.5 9.93230072,17.1758529 9.01222386,35.5000881 L7.00974587,35.4998216 C7.92400005,16.0031314 26.5786418,0.5 49.3913043,0.5 Z" id="Combined-Shape" fill="#FF69B3" fill-rule="nonzero"></path>
                    <ellipse id="Oval" fill="#FF69B3" cx="49.3913043" cy="38" rx="37.5055826" ry="32.1476423"></ellipse>
                    <ellipse id="Oval" fill="#FFFFFF" cx="49.3913043" cy="36" rx="29.75" ry="23.75"></ellipse>
                    <rect id="Rectangle" fill="#283A6D" transform="translate(31.342317, 37.559458) rotate(15.000000) translate(-31.342317, -37.559458) " x="22.9184701" y="36.7936538" width="16.8476931" height="1.53160846" rx="0.765804232"></rect>
                    <rect id="Rectangle" fill="#283A6D" transform="translate(67.342317, 37.559458) scale(-1, 1) rotate(15.000000) translate(-67.342317, -37.559458) " x="58.9184701" y="36.7936538" width="16.8476931" height="1.53160846" rx="0.765804232"></rect>
                </g>
            </g>
        </g>
    </g>
</svg>