<?xml version="1.0" encoding="UTF-8"?>
<svg width="662px" height="62px" viewBox="0 0 662 62" version="1.1" xmlns="http://www.w3.org/2000/svg" xmlns:xlink="http://www.w3.org/1999/xlink">
    <!-- Generator: Sketch 58 (84663) - https://sketch.com -->
    <title>Logo</title>
    <desc>Created with Sketch.</desc>
    <g id="Assets" stroke="none" stroke-width="1" fill="none" fill-rule="evenodd">
        <g id="Artboard" transform="translate(-132.000000, -578.000000)">
            <g id="Group-2" transform="translate(84.000000, 524.255084)">
                <g id="Logo" transform="translate(47.500000, 53.500000)">
                    <g id="Headphone-Guy" transform="translate(288.014925, 0.500000)">
                        <g id="Logo-final">
                            <path d="M5.6491551,19.1927146 C3.70132721,22.8400998 2.54364278,27.4974506 2.54364278,32.5509775 C2.54364278,37.60415 3.70116483,42.261202 5.64874528,45.908473 C2.36642297,44.0452058 1.19015908e-13,38.7689167 1.19015908e-13,32.5509775 C1.19015908e-13,26.4513662 2.27721352,21.2579066 5.46221852,19.3036883 Z" id="Combined-Shape" fill="#FFFFFF"></path>
                            <path d="M16.3998021,12.3165861 C9.23313253,12.3165861 3.42339893,21.3758317 3.42339893,32.5509775 C3.42339893,43.7261233 9.23313253,52.7853689 16.3998021,52.7853689 C16.9553603,52.7853689 17.5027642,52.7309292 18.0395644,52.6245936 C12.7754314,47.5079275 9.58169197,40.7890182 9.58169197,33.4307337 C9.58169197,25.4126387 13.37387,18.1537242 19.5048629,12.8995399 C18.5099888,12.5186116 17.4700256,12.3165861 16.3998021,12.3165861 Z" id="Combined-Shape" fill="#FFFFFF" fill-rule="nonzero"></path>
                            <path d="M86.9199075,19.1927146 C84.9720796,22.8400998 83.8143952,27.4974506 83.8143952,32.5509775 C83.8143952,37.60415 84.9719172,42.261202 86.9194977,45.908473 C83.6371754,44.0452058 81.2707524,38.7689167 81.2707524,32.5509775 C81.2707524,26.4513662 83.5479659,21.2579066 86.7329709,19.3036883 Z" id="Combined-Shape" fill="#FFFFFF" transform="translate(84.095330, 32.550594) scale(-1, 1) translate(-84.095330, -32.550594) "></path>
                            <path d="M80.3914478,12.3165861 C73.2247782,12.3165861 67.4150446,21.3758317 67.4150446,32.5509775 C67.4150446,43.7261233 73.2247782,52.7853689 80.3914478,52.7853689 C80.9470059,52.7853689 81.4944098,52.7309292 82.0312101,52.6245936 C76.7670771,47.5079275 73.5733376,40.7890182 73.5733376,33.4307337 C73.5733376,25.4126387 77.3655157,18.1537242 83.4965086,12.8995399 C82.5016345,12.5186116 81.4616713,12.3165861 80.3914478,12.3165861 Z" id="Combined-Shape" fill="#FFFFFF" fill-rule="nonzero" transform="translate(75.455777, 32.550978) scale(-1, 1) translate(-75.455777, -32.550978) "></path>
                            <path d="M43.4523037,0.439878074 C63.5218215,0.439878074 79.9333176,14.0787685 80.7377329,31.2310265 L78.9760135,31.2307327 C78.1661617,15.1101948 62.5973868,2.19939037 43.4523037,2.19939037 C24.3072206,2.19939037 8.73844569,15.1101948 7.92859391,31.2307327 L6.16687453,31.2310265 C6.97128977,14.0787685 23.3827859,0.439878074 43.4523037,0.439878074 Z" id="Combined-Shape" fill="#FFFFFF" fill-rule="nonzero"></path>
                            <ellipse id="Oval" fill="#FFFFFF" cx="43.4523037" cy="33.4307337" rx="32.9957669" ry="28.282086"></ellipse>
                            <ellipse id="Oval" fill="#349FA6" cx="43.4523037" cy="31.6712214" rx="26.1727454" ry="20.8942085"></ellipse>
                            <path d="M20.836386,32.3694431 L34.3108056,32.3694431 C34.6828914,32.3694431 34.9845266,32.6710783 34.9845266,33.0431641 C34.9845266,33.41525 34.6828914,33.7168851 34.3108056,33.7168851 L20.836386,33.7168851 C20.4643002,33.7168851 20.162665,33.41525 20.162665,33.0431641 C20.162665,32.6710783 20.4643002,32.3694431 20.836386,32.3694431 Z" id="Rectangle" fill="#FFFFFF" transform="translate(27.573596, 33.043164) rotate(15.000000) translate(-27.573596, -33.043164) "></path>
                            <path d="M52.5076073,32.3694431 L65.982027,32.3694431 C66.3541128,32.3694431 66.655748,32.6710783 66.655748,33.0431641 C66.655748,33.41525 66.3541128,33.7168851 65.982027,33.7168851 L52.5076073,33.7168851 C52.1355215,33.7168851 51.8338864,33.41525 51.8338864,33.0431641 C51.8338864,32.6710783 52.1355215,32.3694431 52.5076073,32.3694431 Z" id="Rectangle" fill="#FFFFFF" transform="translate(59.244817, 33.043164) scale(-1, 1) rotate(15.000000) translate(-59.244817, -33.043164) "></path>
                        </g>
                    </g>
                    <path d="M40.2857143,38.0880131 C40.2857143,37.5165846 40.0857143,36.9832515 39.6857143,36.4880131 C39.2857143,35.9927748 38.6666667,35.745156 37.8285714,35.745156 L25.3142857,35.745156 C24.5142857,35.745156 23.9047616,35.9927748 23.4857143,36.4880131 C23.066667,36.9832515 22.8571429,37.5165846 22.8571429,38.0880131 C22.8571429,38.6213462 23.066667,39.1356319 23.4857143,39.6308703 C23.9047616,40.1261087 24.5142857,40.3737274 25.3142857,40.3737274 L35.3714286,40.3737274 L35.3714286,43.4594417 C33.8857143,45.5927748 31.9714286,47.2975372 29.6285714,48.5737274 C27.2857143,49.8499176 24.7047616,50.4880131 21.8857143,50.4880131 C19.4857143,50.4880131 17.2857143,50.0403944 15.2857143,49.145156 C13.2857143,48.2499176 11.5523812,47.0499176 10.0857143,45.545156 C8.61904733,44.0403944 7.48571429,42.3165846 6.68571429,40.3737274 C5.88571429,38.4308703 5.48571429,36.411823 5.48571429,34.3165846 C5.48571429,32.2594417 5.88571429,30.2594417 6.68571429,28.3165846 C7.48571429,26.3737274 8.61904733,24.6499176 10.0857143,23.145156 C11.5523812,21.6403944 13.2857143,20.4403944 15.2857143,19.545156 C17.2857143,18.6499176 19.4857143,18.2022989 21.8857143,18.2022989 C24.0190473,18.2022989 26,18.5642033 27.8285714,19.2880131 C29.6571429,20.011823 31.333333,21.0403944 32.8571429,22.3737274 C33.1619045,22.6022989 33.4190473,22.8308703 33.6285714,23.0594417 C33.8380955,23.2880131 34.0380955,23.5165846 34.2285714,23.745156 C34.4190473,24.011823 34.6190473,24.2689658 34.8285714,24.5165846 L35.4857143,25.2880131 L35.4857143,25.2880131 C35.6761902,25.5927748 35.933333,25.8403944 36.2571429,26.0308703 C36.5809527,26.2213462 36.9904759,26.3165846 37.4857143,26.3165846 C38.2857143,26.3165846 38.8952384,26.0689658 39.3142857,25.5737274 C39.733333,25.078489 39.9428571,24.5642033 39.9428571,24.0308703 C39.9428571,23.5737274 39.8285714,23.1546801 39.6,22.7737274 C38.6857143,21.4022989 37.5904759,20.145156 36.3142857,19.0022989 C35.0380955,17.8594417 33.6380955,16.8880131 32.1142857,16.0880131 C30.5904759,15.2880131 28.9619045,14.6689658 27.2285714,14.2308703 C25.4952384,13.7927748 23.7142857,13.5737274 21.8857143,13.5737274 C18.6857143,13.5737274 15.7809527,14.1642033 13.1714286,15.345156 C10.5619045,16.5261087 8.32380981,18.0880131 6.45714286,20.0308703 C4.5904759,21.9737274 3.14285714,24.1832515 2.11428571,26.6594417 C1.08571429,29.1356319 0.571428571,31.6880131 0.571428571,34.3165846 C0.571428571,36.945156 1.08571429,39.5070605 2.11428571,42.0022989 C3.14285714,44.4975372 4.5904759,46.7165846 6.45714286,48.6594417 C8.32380981,50.6022989 10.5619045,52.1642033 13.1714286,53.345156 C15.7809527,54.5261087 18.6857143,55.1165846 21.8857143,55.1165846 C24.4380955,55.1165846 26.8571429,54.6975372 29.1428571,53.8594417 C31.4285714,53.0213462 33.5047616,51.878489 35.3714286,50.4308703 L35.3714286,52.7737274 C35.3714286,53.3070605 35.5904759,53.8308703 36.0285714,54.345156 C36.466667,54.8594417 37.066667,55.1165846 37.8285714,55.1165846 C38.6285714,55.1165846 39.2380955,54.8689658 39.6571429,54.3737274 C40.0761902,53.878489 40.2857143,53.345156 40.2857143,52.7737274 L40.2857143,38.0880131 Z M95.9555556,55.1165846 C96.7555556,55.1165846 97.3650797,54.8594417 97.784127,54.345156 C98.2031743,53.8308703 98.4126984,53.3070605 98.4126984,52.7737274 C98.4126984,52.2403944 98.2031743,51.7261087 97.784127,51.2308703 C97.3650797,50.7356319 96.7555556,50.4880131 95.9555556,50.4880131 L63.6126984,50.4880131 L63.6126984,15.8594417 C63.6126984,15.3261087 63.4031743,14.811823 62.984127,14.3165846 C62.5650797,13.8213462 61.9555556,13.5737274 61.1555556,13.5737274 C60.3936511,13.5737274 59.7936511,13.8213462 59.3555556,14.3165846 C58.91746,14.811823 58.6984127,15.3261087 58.6984127,15.8594417 L58.6984127,52.7737274 C58.6984127,53.3070605 58.91746,53.8308703 59.3555556,54.345156 C59.7936511,54.8594417 60.3936511,55.1165846 61.1555556,55.1165846 L95.9555556,55.1165846 Z M154.08254,55.1165846 C154.88254,55.1165846 155.492064,54.8689658 155.911111,54.3737274 C156.330158,53.878489 156.539683,53.345156 156.539683,52.7737274 C156.539683,52.4308703 156.48254,52.1261087 156.368254,51.8594417 L138.939683,14.945156 C138.749207,14.5642033 138.453968,14.2403944 138.053968,13.9737274 C137.653968,13.7070605 137.187301,13.5737274 136.653968,13.5737274 C136.120635,13.5737274 135.663492,13.7165846 135.28254,14.0022989 C134.901587,14.2880131 134.615873,14.6022989 134.425397,14.945156 L116.996825,51.8594417 C116.88254,52.1261087 116.825397,52.4308703 116.825397,52.7737274 C116.825397,53.3070605 117.025397,53.8403944 117.425397,54.3737274 C117.825397,54.9070605 118.444444,55.1737274 119.28254,55.1737274 C119.815873,55.1737274 120.273016,55.0213462 120.653968,54.7165846 C121.034921,54.411823 121.320635,54.0880131 121.511111,53.745156 L127.28254,41.5165846 L146.08254,41.5165846 L151.853968,53.745156 C152.044444,54.0880131 152.330158,54.4022989 152.711111,54.6880131 C153.092064,54.9737274 153.549207,55.1165846 154.08254,55.1165846 Z M129.453968,36.8880131 L136.653968,21.5737274 L143.911111,36.8880131 L129.453968,36.8880131 Z M179.866667,25.745156 C179.866667,24.7546801 180.057143,23.8022989 180.438095,22.8880131 C180.819048,21.9737274 181.342857,21.1737274 182.009524,20.4880131 C182.676191,19.8022989 183.476191,19.2499176 184.409524,18.8308703 C185.342857,18.411823 186.361905,18.2022989 187.466667,18.2022989 L202.209524,18.2022989 C203.314285,18.2022989 204.32381,18.411823 205.238095,18.8308703 C206.152381,19.2499176 206.942857,19.811823 207.609524,20.5165846 C208.276191,21.2213462 208.8,22.0213462 209.180952,22.9165846 C209.561905,23.811823 209.752381,24.7546801 209.752381,25.745156 C209.752381,26.278489 209.971428,26.7832515 210.409524,27.2594417 C210.847619,27.7356319 211.447619,27.9737274 212.209524,27.9737274 C212.971428,27.9737274 213.571428,27.7356319 214.009524,27.2594417 C214.447619,26.7832515 214.666667,26.278489 214.666667,25.745156 C214.666667,24.2213462 214.371428,22.7356319 213.780952,21.2880131 C213.190476,19.8403944 212.352381,18.545156 211.266667,17.4022989 C210.180952,16.2594417 208.876191,15.3356319 207.352381,14.6308703 C205.828571,13.9261087 204.114285,13.5737274 202.209524,13.5737274 L187.466667,13.5737274 C185.6,13.5737274 183.895238,13.9261087 182.352381,14.6308703 C180.809524,15.3356319 179.485714,16.2594417 178.380952,17.4022989 C177.276191,18.545156 176.428571,19.8403944 175.838095,21.2880131 C175.247619,22.7356319 174.952381,24.2213462 174.952381,25.745156 C174.952381,27.4594417 175.285714,28.9356319 175.952381,30.1737274 C176.619048,31.411823 177.52381,32.4308703 178.666667,33.2308703 C179.809524,34.0308703 181.133334,34.611823 182.638095,34.9737274 C184.142857,35.3356319 185.752381,35.5165846 187.466667,35.5165846 L202.209524,35.5165846 C203.314285,35.5165846 204.32381,35.7261087 205.238095,36.145156 C206.152381,36.5642033 206.942857,37.1261087 207.609524,37.8308703 C208.276191,38.5356319 208.8,39.3356319 209.180952,40.2308703 C209.561905,41.1261087 209.752381,42.0689658 209.752381,43.0594417 C209.752381,44.011823 209.561905,44.945156 209.180952,45.8594417 C208.8,46.7737274 208.276191,47.5737274 207.609524,48.2594417 C206.942857,48.945156 206.152381,49.4975372 205.238095,49.9165846 C204.32381,50.3356319 203.314285,50.545156 202.209524,50.545156 L187.466667,50.545156 C186.4,50.545156 185.4,50.3356319 184.466667,49.9165846 C183.533334,49.4975372 182.72381,48.945156 182.038095,48.2594417 C181.352381,47.5737274 180.819048,46.7737274 180.438095,45.8594417 C180.057143,44.945156 179.866667,44.011823 179.866667,43.0594417 C179.866667,42.5261084 179.657143,42.011823 179.238095,41.5165846 C178.819048,41.0213462 178.209524,40.7737274 177.409524,40.7737274 C176.647619,40.7737274 176.047619,41.0213462 175.609524,41.5165846 C175.171428,42.011823 174.952381,42.5261084 174.952381,43.0594417 C174.952381,44.5832515 175.257143,46.0689658 175.866667,47.5165846 C176.47619,48.9642033 177.32381,50.2594417 178.409524,51.4022989 C179.495238,52.545156 180.809524,53.4594417 182.352381,54.145156 C183.895238,54.8308703 185.6,55.1737274 187.466667,55.1737274 L202.209524,55.1737274 C204.076191,55.1737274 205.780952,54.8308703 207.32381,54.145156 C208.866667,53.4594417 210.180952,52.545156 211.266667,51.4022989 C212.352381,50.2594417 213.190476,48.9642033 213.780952,47.5165846 C214.371428,46.0689658 214.666667,44.5832515 214.666667,43.0594417 C214.666667,41.5356319 214.371428,40.0403944 213.780952,38.5737274 C213.190476,37.1070605 212.352381,35.8022989 211.266667,34.6594417 C210.180952,33.5165846 208.876191,32.6022989 207.352381,31.9165846 C205.828571,31.2308703 204.114285,30.8880131 202.209524,30.8880131 L187.466667,30.8880131 C185.257143,30.8880131 183.438095,30.5070605 182.009524,29.745156 C180.580952,28.9832515 179.866667,27.6499176 179.866667,25.745156 Z M272.793651,15.8594417 C272.793651,16.3927748 272.584127,16.9165846 272.165079,17.4308703 C271.746032,17.945156 271.136508,18.2022989 270.336508,18.2022989 L255.422222,18.2022989 L255.422222,52.8308703 C255.422222,53.3642033 255.203175,53.8880131 254.765079,54.4022989 C254.326984,54.9165846 253.726984,55.1737274 252.965079,55.1737274 C252.165079,55.1737274 251.555555,54.9165846 251.136508,54.4022989 C250.717461,53.8880131 250.507937,53.3642033 250.507937,52.8308703 L250.507937,18.2022989 L235.536508,18.2022989 C234.774603,18.2022989 234.174603,17.945156 233.736508,17.4308703 C233.298412,16.9165846 233.079365,16.3927748 233.079365,15.8594417 C233.079365,15.3261087 233.298412,14.811823 233.736508,14.3165846 C234.174603,13.8213462 234.774603,13.5737274 235.536508,13.5737274 L270.336508,13.5737274 C271.136508,13.5737274 271.746032,13.8213462 272.165079,14.3165846 C272.584127,14.811823 272.793651,15.3261087 272.793651,15.8594417 Z" id="GLAST" fill="#FFFFFF" fill-rule="nonzero"></path>
                    <path d="M429.619048,15.8594417 C429.619048,15.3261087 429.409524,14.811823 428.990476,14.3165846 C428.571429,13.8213462 427.961905,13.5737274 427.161905,13.5737274 C426.4,13.5737274 425.8,13.8213462 425.361905,14.3165846 C424.923809,14.811823 424.704762,15.3261087 424.704762,15.8594417 L424.704762,46.7165846 L394.190476,14.3737274 C393.771429,13.8403944 393.161905,13.5737274 392.361905,13.5737274 C391.6,13.5737274 391,13.8213462 390.561905,14.3165846 C390.123809,14.811823 389.904762,15.3261087 389.904762,15.8594417 L389.904762,52.7737274 C389.904762,53.3070605 390.123809,53.8308703 390.561905,54.345156 C391,54.8594417 391.6,55.1165846 392.361905,55.1165846 C393.161905,55.1165846 393.771429,54.8594417 394.190476,54.345156 C394.609524,53.8308703 394.819048,53.3070605 394.819048,52.7737274 L394.819048,21.9737274 L425.333333,54.3165846 C425.790476,54.8499176 426.4,55.1165846 427.161905,55.1165846 C427.961905,55.1165846 428.571429,54.8689658 428.990476,54.3737274 C429.409524,53.878489 429.619048,53.345156 429.619048,52.7737274 L429.619048,15.8594417 Z M485.288889,55.1165846 C486.088889,55.1165846 486.698413,54.8689658 487.11746,54.3737274 C487.536508,53.878489 487.746032,53.345156 487.746032,52.7737274 C487.746032,52.4308703 487.688889,52.1261087 487.574603,51.8594417 L470.146032,14.945156 C469.955556,14.5642033 469.660317,14.2403944 469.260317,13.9737274 C468.860317,13.7070605 468.393651,13.5737274 467.860317,13.5737274 C467.326984,13.5737274 466.869842,13.7165846 466.488889,14.0022989 C466.107936,14.2880131 465.822222,14.6022989 465.631746,14.945156 L448.203175,51.8594417 C448.088889,52.1261087 448.031746,52.4308703 448.031746,52.7737274 C448.031746,53.3070605 448.231746,53.8403944 448.631746,54.3737274 C449.031746,54.9070605 449.650793,55.1737274 450.488889,55.1737274 C451.022222,55.1737274 451.479365,55.0213462 451.860317,54.7165846 C452.24127,54.411823 452.526984,54.0880131 452.71746,53.745156 L458.488889,41.5165846 L477.288889,41.5165846 L483.060317,53.745156 C483.250793,54.0880131 483.536508,54.4022989 483.91746,54.6880131 C484.298413,54.9737274 484.755556,55.1165846 485.288889,55.1165846 Z M460.660317,36.8880131 L467.860317,21.5737274 L475.11746,36.8880131 L460.660317,36.8880131 Z M545.873016,15.8594417 C545.873016,15.3261087 545.663492,14.811823 545.244444,14.3165846 C544.825397,13.8213462 544.215873,13.5737274 543.415873,13.5737274 C542.653969,13.5737274 542.053969,13.8213462 541.615873,14.3165846 C541.177777,14.811823 540.95873,15.3261087 540.95873,15.8594417 L540.95873,35.745156 C540.95873,37.6499176 540.587302,39.4880131 539.844444,41.2594417 C539.101587,43.0308703 538.073016,44.6022989 536.75873,45.9737274 C535.444444,47.345156 533.873016,48.4403944 532.044444,49.2594417 C530.215873,50.078489 528.215873,50.4880131 526.044444,50.4880131 C523.873016,50.4880131 521.863492,50.078489 520.015873,49.2594417 C518.168254,48.4403944 516.587302,47.345156 515.273016,45.9737274 C513.95873,44.6022989 512.930159,43.0308703 512.187302,41.2594417 C511.444444,39.4880131 511.073016,37.6499176 511.073016,35.745156 L511.073016,15.8594417 C511.073016,15.3261087 510.863492,14.811823 510.444444,14.3165846 C510.025397,13.8213462 509.415873,13.5737274 508.615873,13.5737274 C507.853969,13.5737274 507.253969,13.8213462 506.815873,14.3165846 C506.377777,14.811823 506.15873,15.3261087 506.15873,15.8594417 L506.15873,35.745156 C506.15873,38.1832515 506.63492,40.5642033 507.587302,42.8880131 C508.539683,45.211823 509.88254,47.278489 511.615873,49.0880131 C513.349206,50.8975372 515.444444,52.3546801 517.901587,53.4594417 C520.35873,54.5642033 523.073016,55.1165846 526.044444,55.1165846 C529.015873,55.1165846 531.720635,54.5642033 534.15873,53.4594417 C536.596826,52.3546801 538.68254,50.8975372 540.415873,49.0880131 C542.149206,47.278489 543.492063,45.211823 544.444444,42.8880131 C545.396825,40.5642033 545.873016,38.1832515 545.873016,35.745156 L545.873016,15.8594417 Z M604,15.8594417 C604,15.3261087 603.790476,14.811823 603.371429,14.3165846 C602.952381,13.8213462 602.342857,13.5737274 601.542857,13.5737274 L566.742857,13.5737274 C565.980953,13.5737274 565.380953,13.8213462 564.942857,14.3165846 C564.504762,14.811823 564.285714,15.3261087 564.285714,15.8594417 C564.285714,16.3927748 564.504762,16.9165846 564.942857,17.4308703 C565.380953,17.945156 565.980953,18.2022989 566.742857,18.2022989 L581.714286,18.2022989 L581.714286,52.8308703 C581.714286,53.3642033 581.92381,53.8880131 582.342857,54.4022989 C582.761904,54.9165846 583.371429,55.1737274 584.171429,55.1737274 C584.933333,55.1737274 585.533333,54.9165846 585.971429,54.4022989 C586.409524,53.8880131 586.628571,53.3642033 586.628571,52.8308703 L586.628571,18.2022989 L601.542857,18.2022989 C602.342857,18.2022989 602.952381,17.945156 603.371429,17.4308703 C603.790476,16.9165846 604,16.3927748 604,15.8594417 Z M627.326984,25.745156 C627.326984,27.6499176 628.04127,28.9832515 629.469841,29.745156 C630.898413,30.5070605 632.71746,30.8880131 634.926984,30.8880131 L649.669841,30.8880131 C651.574603,30.8880131 653.288889,31.2308703 654.812698,31.9165846 C656.336508,32.6022989 657.64127,33.5165846 658.726984,34.6594417 C659.812698,35.8022989 660.650794,37.1070605 661.24127,38.5737274 C661.831746,40.0403944 662.126984,41.5356319 662.126984,43.0594417 C662.126984,44.5832515 661.831746,46.0689658 661.24127,47.5165846 C660.650794,48.9642033 659.812698,50.2594417 658.726984,51.4022989 C657.64127,52.545156 656.326984,53.4594417 654.784127,54.145156 C653.24127,54.8308703 651.536508,55.1737274 649.669841,55.1737274 L634.926984,55.1737274 C633.060317,55.1737274 631.355556,54.8308703 629.812698,54.145156 C628.269841,53.4594417 626.955556,52.545156 625.869841,51.4022989 C624.784127,50.2594417 623.936508,48.9642033 623.326984,47.5165846 C622.71746,46.0689658 622.412698,44.5832515 622.412698,43.0594417 C622.412698,42.5261084 622.631746,42.011823 623.069841,41.5165846 C623.507937,41.0213462 624.107937,40.7737274 624.869841,40.7737274 C625.669841,40.7737274 626.279365,41.0213462 626.698413,41.5165846 C627.11746,42.011823 627.326984,42.5261084 627.326984,43.0594417 C627.326984,44.011823 627.51746,44.945156 627.898413,45.8594417 C628.279365,46.7737274 628.812698,47.5737274 629.498413,48.2594417 C630.184127,48.945156 630.993651,49.4975372 631.926984,49.9165846 C632.860317,50.3356319 633.860317,50.545156 634.926984,50.545156 L649.669841,50.545156 C650.774603,50.545156 651.784127,50.3356319 652.698413,49.9165846 C653.612698,49.4975372 654.403174,48.945156 655.069841,48.2594417 C655.736508,47.5737274 656.260317,46.7737274 656.64127,45.8594417 C657.022223,44.945156 657.212698,44.011823 657.212698,43.0594417 C657.212698,42.0689658 657.022223,41.1261087 656.64127,40.2308703 C656.260317,39.3356319 655.736508,38.5356319 655.069841,37.8308703 C654.403174,37.1261087 653.612698,36.5642033 652.698413,36.145156 C651.784127,35.7261087 650.774603,35.5165846 649.669841,35.5165846 L634.926984,35.5165846 C633.212698,35.5165846 631.603174,35.3356319 630.098413,34.9737274 C628.593651,34.611823 627.269841,34.0308703 626.126984,33.2308703 C624.984127,32.4308703 624.079365,31.411823 623.412698,30.1737274 C622.746031,28.9356319 622.412698,27.4594417 622.412698,25.745156 C622.412698,24.2213462 622.707937,22.7356319 623.298413,21.2880131 C623.888889,19.8403944 624.736508,18.545156 625.84127,17.4022989 C626.946031,16.2594417 628.269841,15.3356319 629.812698,14.6308703 C631.355556,13.9261087 633.060317,13.5737274 634.926984,13.5737274 L649.669841,13.5737274 C651.574603,13.5737274 653.288889,13.9261087 654.812698,14.6308703 C656.336508,15.3356319 657.64127,16.2594417 658.726984,17.4022989 C659.812698,18.545156 660.650794,19.8403944 661.24127,21.2880131 C661.831746,22.7356319 662.126984,24.2213462 662.126984,25.745156 C662.126984,26.278489 661.907937,26.7832515 661.469841,27.2594417 C661.031746,27.7356319 660.431746,27.9737274 659.669841,27.9737274 C658.907937,27.9737274 658.307937,27.7356319 657.869841,27.2594417 C657.431746,26.7832515 657.212698,26.278489 657.212698,25.745156 C657.212698,24.7546801 657.022223,23.811823 656.64127,22.9165846 C656.260317,22.0213462 655.736508,21.2213462 655.069841,20.5165846 C654.403174,19.811823 653.612698,19.2499176 652.698413,18.8308703 C651.784127,18.411823 650.774603,18.2022989 649.669841,18.2022989 L634.926984,18.2022989 C633.822223,18.2022989 632.803174,18.411823 631.869841,18.8308703 C630.936508,19.2499176 630.136508,19.8022989 629.469841,20.4880131 C628.803174,21.1737274 628.279365,21.9737274 627.898413,22.8880131 C627.51746,23.8022989 627.326984,24.7546801 627.326984,25.745156 Z" id="NAUTS" fill="#FFFFFF" fill-rule="nonzero"></path>
                </g>
            </g>
        </g>
    </g>
</svg>